<?xml version="1.0" encoding="utf-8"?>
<!-- Generator: Adobe Illustrator 16.0.0, SVG Export Plug-In . SVG Version: 6.00 Build 0)  -->
<!DOCTYPE svg PUBLIC "-//W3C//DTD SVG 1.1//EN" "http://www.w3.org/Graphics/SVG/1.1/DTD/svg11.dtd">
<svg version="1.1" id="Capa_1" xmlns="http://www.w3.org/2000/svg" xmlns:xlink="http://www.w3.org/1999/xlink" x="0px" y="0px"
	 width="572.23px" height="1129.445px" viewBox="239.23 0 572.23 1129.445" enable-background="new 239.23 0 572.23 1129.445"
	 xml:space="preserve">
<g>
	<g>
		<g>
			<defs>
				<rect id="SVGID_1_" x="18.056" y="-0.249" width="774.479" height="1135.92"/>
			</defs>
			<clipPath id="SVGID_2_">
				<use xlink:href="#SVGID_1_"  overflow="visible"/>
			</clipPath>
			<g opacity="0.1" clip-path="url(#SVGID_2_)">
				<g>
					<g opacity="0.75">
						<defs>
							<rect id="SVGID_3_" x="18.056" y="-0.249" opacity="0.75" width="774.479" height="1135.92"/>
						</defs>
						<clipPath id="SVGID_4_">
							<use xlink:href="#SVGID_3_"  overflow="visible"/>
						</clipPath>
						<g clip-path="url(#SVGID_4_)">
							<g>
								<defs>
									<rect id="SVGID_5_" x="18.056" y="-0.248" width="774.479" height="1135.919"/>
								</defs>
								<clipPath id="SVGID_6_">
									<use xlink:href="#SVGID_5_"  overflow="visible"/>
								</clipPath>
								<g transform="matrix(1 0 0 1 0 -1.490116e-08)" clip-path="url(#SVGID_6_)">
									
										<image overflow="visible" enable-background="new    " width="3229" height="4738" xlink:href="39C7DC7B98AC30B7.png"  transform="matrix(0.2399 0 0 0.2397 18.0557 -0.248)">
									</image>
								</g>
							</g>
						</g>
					</g>
					<g>
						<defs>
							<rect id="SVGID_7_" x="18.056" y="-0.249" width="774.479" height="1135.92"/>
						</defs>
						<clipPath id="SVGID_8_">
							<use xlink:href="#SVGID_7_"  overflow="visible"/>
						</clipPath>
						<path clip-path="url(#SVGID_8_)" fill="#36A9E1" d="M471.578,454.895l-22.682-61.568
							c50.223-14.574,97.73-36.982,142.559-67.237c44.828-30.231,80.061-63.713,105.719-100.445
							c25.635-36.708,38.471-72.892,38.471-108.541c0-26.456-8.502-47.245-25.516-62.367
							c-17.016-15.121-39.828-22.682-68.451-22.682c-34.018,0-71.271,8.906-111.779,26.731
							c-40.508,17.812-80.596,42.661-120.293,74.523c-39.685,31.863-77.631,70.202-113.804,115.019
							c-39.435,49.15-72.38,100.444-98.825,153.905c-26.469,53.473-46.46,107.874-59.95,163.228
							c-13.502,55.365-20.253,112.732-20.253,172.135c0,100.992,23.218,181.041,69.666,240.17
							c46.436,59.139,109.886,88.703,190.363,88.703c51.842,0,102.194-11.609,151.071-34.826
							c48.865-23.219,104.896-62.105,168.086-116.65l12.955-10.525l9.729,17.812c-64.271,63.725-128.807,111.518-193.604,143.379
							c-64.807,31.863-130.151,47.795-196.03,47.795c-59.414,0-112.197-14.182-158.359-42.531
							c-46.174-28.35-81.822-68.047-106.933-119.078C38.605,900.81,26.056,841.015,26.056,772.419
							c0-49.674,7.287-101.516,21.873-155.523c14.573-53.997,36.315-108.671,65.2-164.038
							c28.886-55.343,63.046-108.946,102.469-160.788c41.578-55.081,87.752-104.35,138.522-147.833
							c50.758-43.46,101.661-77.084,152.69-100.85c51.033-23.753,96.803-35.636,137.309-35.636c38.328,0,68.975,10.93,91.932,32.803
							c22.945,21.872,34.436,51.436,34.436,88.704c0,41.59-13.777,84.918-41.318,130.009
							c-27.539,45.09-64.271,85.335-110.158,120.697C573.095,415.34,523.943,440.309,471.578,454.895"/>
					</g>
				</g>
			</g>
		</g>
	</g>
</g>
</svg>
