<?xml version="1.0" encoding="utf-8"?>
<!-- Generator: Adobe Illustrator 16.0.0, SVG Export Plug-In . SVG Version: 6.00 Build 0)  -->
<!DOCTYPE svg PUBLIC "-//W3C//DTD SVG 1.1//EN" "http://www.w3.org/Graphics/SVG/1.1/DTD/svg11.dtd">
<svg version="1.1" id="Capa_1" xmlns="http://www.w3.org/2000/svg" xmlns:xlink="http://www.w3.org/1999/xlink" x="0px" y="0px"
	 width="20.797px" height="20.212px" viewBox="0 0 20.797 20.212" enable-background="new 0 0 20.797 20.212" xml:space="preserve">
<path fill="#CD9416" d="M20.797,18.552c0,0.916-0.743,1.66-1.661,1.66H1.66c-0.917,0-1.66-0.744-1.66-1.66V1.661
	C0,0.744,0.743,0,1.66,0h17.476c0.918,0,1.661,0.744,1.661,1.661V18.552z"/>
<path fill="#FFFFFF" d="M16.435,16.585l-3.069-5.088c-0.266-0.438-0.791-0.622-1.26-0.472l-0.765-1.098
	c-0.028-0.04-0.064-0.072-0.103-0.096c1.044-0.801,1.719-2.06,1.719-3.474c0-2.413-1.963-4.375-4.376-4.375S4.206,3.943,4.206,6.356
	s1.962,4.375,4.375,4.375c0.779,0,1.513-0.205,2.147-0.564c0.007,0.05,0.026,0.1,0.058,0.145l0.771,1.107
	c-0.249,0.343-0.283,0.814-0.051,1.199l3.071,5.088c0.203,0.338,0.562,0.525,0.929,0.525c0.19,0,0.385-0.051,0.56-0.156
	C16.58,17.766,16.745,17.099,16.435,16.585 M4.648,6.356c0-2.168,1.765-3.932,3.933-3.932s3.932,1.764,3.932,3.932
	s-1.764,3.932-3.932,3.932S4.648,8.524,4.648,6.356"/>
</svg>
