<?xml version="1.0" encoding="utf-8"?>
<!-- Generator: Adobe Illustrator 16.0.0, SVG Export Plug-In . SVG Version: 6.00 Build 0)  -->
<!DOCTYPE svg PUBLIC "-//W3C//DTD SVG 1.1//EN" "http://www.w3.org/Graphics/SVG/1.1/DTD/svg11.dtd">
<svg version="1.1" id="Capa_1" xmlns="http://www.w3.org/2000/svg" xmlns:xlink="http://www.w3.org/1999/xlink" x="0px" y="0px"
	 width="200px" height="100px" viewBox="0 0 200 100" enable-background="new 0 0 200 100" xml:space="preserve">
<path fill="#322C63" d="M37.372,62.734c-0.489,0-0.966-0.248-1.234-0.699l-6.613-11.092c-0.272-0.458-0.27-1.027,0.007-1.481
	l6.613-10.854c0.412-0.678,1.295-0.892,1.972-0.479c0.677,0.413,0.891,1.296,0.479,1.972l-6.163,10.115l6.17,10.348
	c0.406,0.682,0.183,1.562-0.498,1.969C37.875,62.67,37.622,62.734,37.372,62.734"/>
<path fill="#322C63" d="M164.592,62.734c-0.255,0-0.513-0.066-0.746-0.209c-0.677-0.412-0.891-1.295-0.479-1.973l6.164-10.114
	l-6.17-10.349c-0.407-0.681-0.184-1.562,0.497-1.968c0.681-0.405,1.562-0.185,1.967,0.497l6.613,11.093
	c0.272,0.458,0.27,1.028-0.007,1.481l-6.612,10.854C165.548,62.49,165.076,62.734,164.592,62.734"/>
</svg>
