<?xml version="1.0" encoding="utf-8"?>
<!-- Generator: Adobe Illustrator 16.0.0, SVG Export Plug-In . SVG Version: 6.00 Build 0)  -->
<!DOCTYPE svg PUBLIC "-//W3C//DTD SVG 1.1//EN" "http://www.w3.org/Graphics/SVG/1.1/DTD/svg11.dtd">
<svg version="1.1" id="Layer_1" xmlns="http://www.w3.org/2000/svg" xmlns:xlink="http://www.w3.org/1999/xlink" x="0px" y="0px"
	 width="300px" height="140px" viewBox="0 -22 300 140" enable-background="new 0 -22 300 140" xml:space="preserve">
<g>
	<g>
		<g>
			<defs>
				<rect id="SVGID_1_" x="64.893" y="-11.359" width="171.615" height="118.619"/>
			</defs>
			<clipPath id="SVGID_2_">
				<use xlink:href="#SVGID_1_"  overflow="visible"/>
			</clipPath>
			<path clip-path="url(#SVGID_2_)" fill="#CE9516" d="M150.99,34.534v8.305c0,0-7.187-23.638-42.166-17.569
				C108.825,25.27,130.228,16.965,150.99,34.534"/>
		</g>
		<g>
			<defs>
				<rect id="SVGID_3_" x="64.893" y="-11.359" width="171.615" height="118.619"/>
			</defs>
			<clipPath id="SVGID_4_">
				<use xlink:href="#SVGID_3_"  overflow="visible"/>
			</clipPath>
			<path clip-path="url(#SVGID_4_)" fill="#322C63" d="M102.117,29.901L88.381,57.854c0,0,36.735-21.402,62.61,4.151
				c0,0,17.09-25.234,61.489,0.799l-7.347-28.908l2.875,19.486c0,0-32.582-17.89-57.019-0.48c0,0-24.917-23.158-52.708-8.624
				L102.117,29.901z"/>
		</g>
		<g>
			<defs>
				<rect id="SVGID_5_" x="64.893" y="-11.359" width="171.615" height="118.619"/>
			</defs>
			<clipPath id="SVGID_6_">
				<use xlink:href="#SVGID_5_"  overflow="visible"/>
			</clipPath>
			<path clip-path="url(#SVGID_6_)" fill="#F8AA17" d="M171.822,40.737c0,0,0.64-8.979,12.367-29.828c0,0,8.73-15.824,17.461-20.371
				c0,0,8.429-3.639,10.73-0.85c0,0,1.396,2.607-6.244,9.337c0,0-14.369,13.885-20.008,20.25c0,0,2.214-0.029,4.305-3.396
				c0,0-0.545,4.366-4.426,9.216c0,0-2.363,3.092-6.912,3.396c0,0-3.697,0.97-4.062,3.092c0,0-0.667,1.939,0.97,3.213
				L171.822,40.737z"/>
		</g>
		<g>
			<defs>
				<rect id="SVGID_7_" x="64.893" y="-11.359" width="171.615" height="118.619"/>
			</defs>
			<clipPath id="SVGID_8_">
				<use xlink:href="#SVGID_7_"  overflow="visible"/>
			</clipPath>
			<g clip-path="url(#SVGID_8_)">
				<g>
					<g opacity="0.65">
						<defs>
							<rect id="SVGID_9_" x="171.82" y="-11.359" opacity="0.65" width="40.662" height="52.097"/>
						</defs>
						<clipPath id="SVGID_10_">
							<use xlink:href="#SVGID_9_"  overflow="visible"/>
						</clipPath>
						<g clip-path="url(#SVGID_10_)">
							<g>
								<defs>
									<path id="SVGID_11_" d="M171.82,40.737c0,0,0.642-8.979,12.369-29.828c0,0,8.73-15.824,17.461-20.371
										c0,0,8.428-3.639,10.731-0.85c0,0,1.394,2.607-6.245,9.337c0,0-14.369,13.885-20.007,20.25c0,0,2.214-0.029,4.304-3.395
										c0,0-0.545,4.365-4.426,9.215c0,0-2.363,3.092-6.91,3.396c0,0-3.699,0.97-4.062,3.092c0,0-0.667,1.94,0.971,3.214
										L171.82,40.737z"/>
								</defs>
								<clipPath id="SVGID_12_">
									<use xlink:href="#SVGID_11_"  overflow="visible"/>
								</clipPath>
								
									<linearGradient id="SVGID_13_" gradientUnits="userSpaceOnUse" x1="-292.0713" y1="-528.749" x2="-291.0718" y2="-528.749" gradientTransform="matrix(40.6601 0 0 40.6601 12047.4746 21512.7773)">
									<stop  offset="0" style="stop-color:#2B2523"/>
									<stop  offset="0.1378" style="stop-color:#534E4C"/>
									<stop  offset="0.3665" style="stop-color:#908C8B"/>
									<stop  offset="0.5754" style="stop-color:#C0BEBD"/>
									<stop  offset="0.7572" style="stop-color:#E2E1E1"/>
									<stop  offset="0.9049" style="stop-color:#F7F7F7"/>
									<stop  offset="1" style="stop-color:#FFFFFF"/>
								</linearGradient>
								<rect x="171.82" y="-13.101" clip-path="url(#SVGID_12_)" fill="url(#SVGID_13_)" width="41.955" height="53.838"/>
							</g>
						</g>
					</g>
					<g>
						<defs>
							<rect id="SVGID_14_" x="64.893" y="-11.359" width="171.615" height="118.619"/>
						</defs>
						<clipPath id="SVGID_15_">
							<use xlink:href="#SVGID_14_"  overflow="visible"/>
						</clipPath>
						<path clip-path="url(#SVGID_15_)" fill="#322C63" d="M69.747,74.04c-1.069,0-1.912,0.354-2.53,1.065
							c-0.619,0.713-0.928,1.688-0.928,2.924c0,1.271,0.298,2.256,0.895,2.949c0.596,0.693,1.446,1.039,2.55,1.039
							c0.678,0,1.451-0.121,2.32-0.365v0.992c-0.674,0.252-1.505,0.379-2.493,0.379c-1.432,0-2.537-0.436-3.315-1.305
							c-0.778-0.867-1.167-2.103-1.167-3.703c0-1.002,0.187-1.879,0.562-2.634c0.374-0.753,0.915-1.334,1.622-1.741
							c0.707-0.408,1.54-0.613,2.497-0.613c1.02,0,1.911,0.188,2.673,0.561l-0.479,0.972C71.218,74.213,70.483,74.04,69.747,74.04"
							/>
					</g>
					<g>
						<defs>
							<rect id="SVGID_16_" x="64.893" y="-11.359" width="171.615" height="118.619"/>
						</defs>
						<clipPath id="SVGID_17_">
							<use xlink:href="#SVGID_16_"  overflow="visible"/>
						</clipPath>
						<path clip-path="url(#SVGID_17_)" fill="#322C63" d="M82.723,78.017c0,1.557-0.394,2.779-1.18,3.671
							c-0.787,0.893-1.881,1.336-3.282,1.336c-1.432,0-2.537-0.437-3.315-1.312c-0.778-0.875-1.167-2.111-1.167-3.707
							c0-1.582,0.39-2.811,1.17-3.681c0.781-0.87,1.889-1.307,3.325-1.307c1.397,0,2.487,0.443,3.272,1.33
							C82.331,75.231,82.723,76.456,82.723,78.017 M74.976,78.017c0,1.316,0.28,2.314,0.841,2.996
							c0.561,0.68,1.375,1.021,2.444,1.021c1.077,0,1.89-0.34,2.44-1.019c0.55-0.678,0.825-1.678,0.825-2.998
							c0-1.309-0.274-2.299-0.821-2.977c-0.548-0.676-1.358-1.015-2.431-1.015c-1.077,0-1.896,0.342-2.457,1.021
							S74.976,76.718,74.976,78.017"/>
					</g>
					<g>
						<defs>
							<rect id="SVGID_18_" x="64.893" y="-11.359" width="171.615" height="118.619"/>
						</defs>
						<clipPath id="SVGID_19_">
							<use xlink:href="#SVGID_18_"  overflow="visible"/>
						</clipPath>
						<path clip-path="url(#SVGID_19_)" fill="#322C63" d="M92.593,82.891h-1.29l-5.313-8.159h-0.053
							c0.071,0.959,0.106,1.836,0.106,2.634v5.525H85v-9.722h1.277l5.3,8.126h0.053c-0.009-0.12-0.029-0.505-0.06-1.154
							c-0.031-0.648-0.042-1.112-0.033-1.394v-5.578h1.057L92.593,82.891L92.593,82.891z"/>
					</g>
					<g>
						<defs>
							<rect id="SVGID_20_" x="64.893" y="-11.359" width="171.615" height="118.619"/>
						</defs>
						<clipPath id="SVGID_21_">
							<use xlink:href="#SVGID_20_"  overflow="visible"/>
						</clipPath>
						<path clip-path="url(#SVGID_21_)" fill="#322C63" d="M100.861,80.304c0,0.855-0.31,1.523-0.931,2.001
							c-0.621,0.479-1.463,0.72-2.527,0.72c-1.153,0-2.039-0.148-2.66-0.446v-1.091c0.399,0.169,0.834,0.303,1.304,0.399
							c0.469,0.097,0.935,0.146,1.396,0.146c0.754,0,1.321-0.144,1.702-0.429c0.381-0.287,0.572-0.685,0.572-1.192
							c0-0.338-0.067-0.613-0.203-0.829c-0.135-0.214-0.361-0.413-0.678-0.596c-0.317-0.182-0.799-0.387-1.446-0.618
							c-0.905-0.322-1.551-0.707-1.939-1.149c-0.387-0.444-0.581-1.021-0.581-1.735c0-0.75,0.281-1.346,0.844-1.789
							c0.563-0.442,1.308-0.666,2.234-0.666c0.967,0,1.856,0.18,2.667,0.533l-0.353,0.984c-0.802-0.337-1.582-0.506-2.34-0.506
							c-0.599,0-1.067,0.129-1.403,0.386c-0.337,0.257-0.506,0.614-0.506,1.071c0,0.336,0.062,0.61,0.187,0.826
							c0.124,0.216,0.333,0.413,0.628,0.593s0.746,0.378,1.353,0.595c1.02,0.364,1.721,0.754,2.105,1.172
							C100.669,79.098,100.861,79.639,100.861,80.304"/>
					</g>
					<g>
						<defs>
							<rect id="SVGID_22_" x="64.893" y="-11.359" width="171.615" height="118.619"/>
						</defs>
						<clipPath id="SVGID_23_">
							<use xlink:href="#SVGID_22_"  overflow="visible"/>
						</clipPath>
						<polygon clip-path="url(#SVGID_23_)" fill="#322C63" points="108.377,82.891 102.958,82.891 102.958,73.169 108.377,73.169 
							108.377,74.173 104.088,74.173 104.088,77.305 108.119,77.305 108.119,78.303 104.088,78.303 104.088,81.88 108.377,81.88 
													"/>
					</g>
					<g>
						<defs>
							<rect id="SVGID_24_" x="64.893" y="-11.359" width="171.615" height="118.619"/>
						</defs>
						<clipPath id="SVGID_25_">
							<use xlink:href="#SVGID_24_"  overflow="visible"/>
						</clipPath>
						<path clip-path="url(#SVGID_25_)" fill="#322C63" d="M109.225,85.45c-0.417,0-0.745-0.061-0.984-0.179v-0.966
							c0.314,0.089,0.643,0.134,0.984,0.134c0.439,0,0.772-0.134,1.001-0.399c0.228-0.267,0.342-0.648,0.342-1.149v-9.722h1.131
							v9.629c0,0.842-0.213,1.494-0.639,1.958C110.635,85.219,110.023,85.45,109.225,85.45"/>
					</g>
					<g>
						<defs>
							<rect id="SVGID_26_" x="64.893" y="-11.359" width="171.615" height="118.619"/>
						</defs>
						<clipPath id="SVGID_27_">
							<use xlink:href="#SVGID_26_"  overflow="visible"/>
						</clipPath>
						<path clip-path="url(#SVGID_27_)" fill="#322C63" d="M122.826,78.017c0,1.557-0.394,2.779-1.18,3.671
							c-0.787,0.893-1.881,1.336-3.282,1.336c-1.432,0-2.537-0.437-3.315-1.312c-0.778-0.875-1.167-2.111-1.167-3.707
							c0-1.582,0.39-2.811,1.17-3.681c0.781-0.87,1.889-1.307,3.325-1.307c1.397,0,2.487,0.443,3.272,1.33
							C122.434,75.231,122.826,76.456,122.826,78.017 M115.079,78.017c0,1.316,0.28,2.314,0.841,2.996
							c0.561,0.68,1.375,1.021,2.444,1.021c1.077,0,1.89-0.34,2.44-1.019c0.55-0.678,0.825-1.678,0.825-2.998
							c0-1.309-0.274-2.299-0.821-2.977c-0.548-0.676-1.358-1.015-2.431-1.015c-1.077,0-1.896,0.342-2.457,1.021
							S115.079,76.718,115.079,78.017"/>
					</g>
					<g>
						<defs>
							<rect id="SVGID_28_" x="64.893" y="-11.359" width="171.615" height="118.619"/>
						</defs>
						<clipPath id="SVGID_29_">
							<use xlink:href="#SVGID_28_"  overflow="visible"/>
						</clipPath>
						<path clip-path="url(#SVGID_29_)" fill="#322C63" d="M136.17,77.937c0,1.632-0.428,2.865-1.283,3.701
							c-0.856,0.834-2.113,1.252-3.77,1.252h-2.328v-9.721h2.627c1.552,0,2.732,0.405,3.541,1.217
							C135.766,75.198,136.17,76.38,136.17,77.937 M135.432,77.964c0-1.394-0.354-2.439-1.06-3.144
							c-0.708-0.702-1.746-1.054-3.116-1.054h-1.788v8.524h1.609C133.979,82.292,135.432,80.85,135.432,77.964"/>
					</g>
					<g>
						<defs>
							<rect id="SVGID_30_" x="64.893" y="-11.359" width="171.615" height="118.619"/>
						</defs>
						<clipPath id="SVGID_31_">
							<use xlink:href="#SVGID_30_"  overflow="visible"/>
						</clipPath>
						<polygon clip-path="url(#SVGID_31_)" fill="#322C63" points="143.826,82.891 138.513,82.891 138.513,73.169 143.826,73.169 
							143.826,73.795 139.191,73.795 139.191,77.471 143.567,77.471 143.567,78.097 139.191,78.097 139.191,82.266 143.826,82.266 
													"/>
					</g>
					<g>
						<defs>
							<rect id="SVGID_32_" x="64.893" y="-11.359" width="171.615" height="118.619"/>
						</defs>
						<clipPath id="SVGID_33_">
							<use xlink:href="#SVGID_32_"  overflow="visible"/>
						</clipPath>
						<polygon clip-path="url(#SVGID_33_)" fill="#322C63" points="149.783,82.891 149.783,73.169 150.461,73.169 150.461,82.253 
							155.096,82.253 155.096,82.891 						"/>
					</g>
					<g>
						<defs>
							<rect id="SVGID_34_" x="64.893" y="-11.359" width="171.615" height="118.619"/>
						</defs>
						<clipPath id="SVGID_35_">
							<use xlink:href="#SVGID_34_"  overflow="visible"/>
						</clipPath>
						<path clip-path="url(#SVGID_35_)" fill="#322C63" d="M161.562,79.46h-3.951l-1.355,3.431h-0.751l3.91-9.762h0.433l3.829,9.762
							h-0.764L161.562,79.46z M157.857,78.848h3.479l-1.324-3.504c-0.109-0.274-0.242-0.657-0.398-1.144
							c-0.118,0.425-0.25,0.811-0.393,1.155L157.857,78.848z"/>
					</g>
					<g>
						<defs>
							<rect id="SVGID_36_" x="64.893" y="-11.359" width="171.615" height="118.619"/>
						</defs>
						<clipPath id="SVGID_37_">
							<use xlink:href="#SVGID_36_"  overflow="visible"/>
						</clipPath>
						<path clip-path="url(#SVGID_37_)" fill="#322C63" d="M188.131,78.848v4.043h-1.13v-9.722h2.666
							c1.192,0,2.073,0.229,2.644,0.686c0.569,0.457,0.854,1.144,0.854,2.062c0,1.285-0.651,2.153-1.955,2.606l2.642,4.368h-1.338
							l-2.354-4.043H188.131z M188.131,77.877h1.551c0.797,0,1.383-0.158,1.756-0.477c0.371-0.315,0.558-0.793,0.558-1.427
							c0-0.642-0.188-1.105-0.568-1.39c-0.379-0.283-0.987-0.426-1.825-0.426h-1.47L188.131,77.877L188.131,77.877z"/>
					</g>
					<g>
						<defs>
							<rect id="SVGID_38_" x="64.893" y="-11.359" width="171.615" height="118.619"/>
						</defs>
						<clipPath id="SVGID_39_">
							<use xlink:href="#SVGID_38_"  overflow="visible"/>
						</clipPath>
						<path clip-path="url(#SVGID_39_)" fill="#322C63" d="M203.967,78.017c0,1.558-0.394,2.779-1.181,3.67
							c-0.786,0.892-1.882,1.338-3.281,1.338c-1.433,0-2.537-0.438-3.315-1.312c-0.777-0.876-1.166-2.112-1.166-3.707
							c0-1.583,0.39-2.811,1.17-3.681c0.781-0.871,1.89-1.309,3.324-1.309c1.396,0,2.487,0.444,3.271,1.33
							C203.574,75.232,203.967,76.456,203.967,78.017 M196.221,78.017c0,1.316,0.279,2.314,0.84,2.995
							c0.562,0.681,1.375,1.021,2.444,1.021c1.077,0,1.892-0.339,2.44-1.018s0.824-1.678,0.824-2.999c0-1.309-0.274-2.3-0.821-2.977
							c-0.548-0.676-1.357-1.015-2.431-1.015c-1.078,0-1.896,0.341-2.457,1.021S196.221,76.718,196.221,78.017 M198.573,72.225
							c0.213-0.273,0.442-0.605,0.688-0.997c0.245-0.391,0.438-0.729,0.581-1.018h1.343v0.14c-0.194,0.288-0.484,0.645-0.871,1.063
							c-0.385,0.422-0.719,0.748-1.004,0.978h-0.737V72.225z"/>
					</g>
					<g>
						<defs>
							<rect id="SVGID_40_" x="64.893" y="-11.359" width="171.615" height="118.619"/>
						</defs>
						<clipPath id="SVGID_41_">
							<use xlink:href="#SVGID_40_"  overflow="visible"/>
						</clipPath>
						<path clip-path="url(#SVGID_41_)" fill="#322C63" d="M213.837,82.891h-1.29l-5.312-8.159h-0.053
							c0.069,0.959,0.105,1.836,0.105,2.634v5.525h-1.044v-9.722h1.276l5.301,8.126h0.052c-0.009-0.12-0.028-0.505-0.06-1.154
							c-0.031-0.648-0.043-1.112-0.033-1.394v-5.578h1.058V82.891L213.837,82.891z"/>
					</g>
					<g>
						<defs>
							<rect id="SVGID_42_" x="64.893" y="-11.359" width="171.615" height="118.619"/>
						</defs>
						<clipPath id="SVGID_43_">
							<use xlink:href="#SVGID_42_"  overflow="visible"/>
						</clipPath>
						<rect x="216.619" y="73.169" clip-path="url(#SVGID_43_)" fill="#322C63" width="1.131" height="9.723"/>
					</g>
					<g>
						<defs>
							<rect id="SVGID_44_" x="64.893" y="-11.359" width="171.615" height="118.619"/>
						</defs>
						<clipPath id="SVGID_45_">
							<use xlink:href="#SVGID_44_"  overflow="visible"/>
						</clipPath>
						<path clip-path="url(#SVGID_45_)" fill="#322C63" d="M224.688,74.04c-1.068,0-1.912,0.354-2.53,1.065
							c-0.618,0.713-0.929,1.688-0.929,2.924c0,1.271,0.299,2.256,0.896,2.949c0.596,0.693,1.445,1.039,2.55,1.039
							c0.679,0,1.452-0.121,2.32-0.365v0.992c-0.675,0.252-1.505,0.379-2.493,0.379c-1.434,0-2.536-0.436-3.314-1.305
							c-0.777-0.867-1.168-2.103-1.168-3.703c0-1.002,0.188-1.879,0.562-2.634c0.375-0.753,0.915-1.334,1.623-1.741
							c0.707-0.408,1.539-0.613,2.497-0.613c1.021,0,1.911,0.188,2.674,0.561l-0.479,0.972
							C226.16,74.213,225.424,74.04,224.688,74.04"/>
					</g>
					<g>
						<defs>
							<rect id="SVGID_46_" x="64.893" y="-11.359" width="171.615" height="118.619"/>
						</defs>
						<clipPath id="SVGID_47_">
							<use xlink:href="#SVGID_46_"  overflow="visible"/>
						</clipPath>
						<path clip-path="url(#SVGID_47_)" fill="#322C63" d="M235.337,82.892l-1.21-3.092h-3.896l-1.196,3.092h-1.144l3.844-9.763
							h0.949l3.824,9.763H235.337z M233.773,78.781l-1.129-3.014c-0.147-0.381-0.297-0.849-0.453-1.401
							c-0.098,0.426-0.237,0.893-0.418,1.401l-1.146,3.014H233.773z"/>
					</g>
					<g>
						<defs>
							<rect id="SVGID_48_" x="64.893" y="-11.359" width="171.615" height="118.619"/>
						</defs>
						<clipPath id="SVGID_49_">
							<use xlink:href="#SVGID_48_"  overflow="visible"/>
						</clipPath>
						<polygon clip-path="url(#SVGID_49_)" fill="#322C63" points="67.893,101.476 70.256,97.056 70.865,97.056 68.174,102.012 
							68.174,105.133 67.595,105.133 67.595,102.056 64.893,97.056 65.539,97.056 						"/>
					</g>
					<g>
						<defs>
							<rect id="SVGID_50_" x="64.893" y="-11.359" width="171.615" height="118.619"/>
						</defs>
						<clipPath id="SVGID_51_">
							<use xlink:href="#SVGID_50_"  overflow="visible"/>
						</clipPath>
						<polygon clip-path="url(#SVGID_51_)" fill="#322C63" points="75.128,105.133 75.128,97.056 75.691,97.056 75.691,104.603 
							79.542,104.603 79.542,105.133 						"/>
					</g>
					<g>
						<defs>
							<rect id="SVGID_52_" x="64.893" y="-11.359" width="171.615" height="118.619"/>
						</defs>
						<clipPath id="SVGID_53_">
							<use xlink:href="#SVGID_52_"  overflow="visible"/>
						</clipPath>
						<path clip-path="url(#SVGID_53_)" fill="#322C63" d="M84.913,102.282h-3.281l-1.127,2.851H79.88l3.249-8.11h0.359l3.182,8.11
							h-0.635L84.913,102.282z M81.836,101.773h2.889l-1.099-2.912c-0.092-0.229-0.202-0.545-0.332-0.948
							c-0.099,0.354-0.208,0.674-0.325,0.961L81.836,101.773z"/>
					</g>
					<g>
						<defs>
							<rect id="SVGID_54_" x="64.893" y="-11.359" width="171.615" height="118.619"/>
						</defs>
						<clipPath id="SVGID_55_">
							<use xlink:href="#SVGID_54_"  overflow="visible"/>
						</clipPath>
						<polygon clip-path="url(#SVGID_55_)" fill="#322C63" points="96.784,105.133 96.215,105.133 96.215,101.161 91.497,101.161 
							91.497,105.133 90.934,105.133 90.934,97.056 91.497,97.056 91.497,100.642 96.215,100.642 96.215,97.056 96.784,97.056 
													"/>
					</g>
					<g>
						<defs>
							<rect id="SVGID_56_" x="64.893" y="-11.359" width="171.615" height="118.619"/>
						</defs>
						<clipPath id="SVGID_57_">
							<use xlink:href="#SVGID_56_"  overflow="visible"/>
						</clipPath>
						<rect x="99.162" y="97.056" clip-path="url(#SVGID_57_)" fill="#322C63" width="0.563" height="8.077"/>
					</g>
					<g>
						<defs>
							<rect id="SVGID_58_" x="64.893" y="-11.359" width="171.615" height="118.619"/>
						</defs>
						<clipPath id="SVGID_59_">
							<use xlink:href="#SVGID_58_"  overflow="visible"/>
						</clipPath>
						<path clip-path="url(#SVGID_59_)" fill="#322C63" d="M106.561,103.05c0,0.674-0.248,1.209-0.743,1.603
							c-0.495,0.395-1.154,0.592-1.975,0.592c-0.987,0-1.744-0.109-2.271-0.326v-0.563c0.582,0.247,1.324,0.37,2.227,0.37
							c0.663,0,1.188-0.15,1.577-0.455c0.388-0.305,0.583-0.702,0.583-1.195c0-0.307-0.064-0.561-0.194-0.761
							c-0.129-0.199-0.338-0.384-0.629-0.55c-0.291-0.166-0.718-0.344-1.282-0.535c-0.825-0.284-1.395-0.592-1.71-0.92
							c-0.315-0.329-0.472-0.77-0.472-1.317c0-0.604,0.237-1.097,0.71-1.478c0.473-0.383,1.082-0.572,1.826-0.572
							c0.758,0,1.471,0.144,2.138,0.433l-0.205,0.484c-0.67-0.279-1.311-0.42-1.922-0.42c-0.597,0-1.072,0.139-1.426,0.414
							c-0.353,0.276-0.53,0.651-0.53,1.127c0,0.299,0.054,0.544,0.163,0.735c0.109,0.191,0.286,0.363,0.533,0.517
							c0.247,0.154,0.671,0.336,1.271,0.55c0.629,0.218,1.103,0.429,1.419,0.634c0.317,0.203,0.548,0.436,0.694,0.694
							C106.488,102.367,106.561,102.683,106.561,103.05"/>
					</g>
					<g>
						<defs>
							<rect id="SVGID_60_" x="64.893" y="-11.359" width="171.615" height="118.619"/>
						</defs>
						<clipPath id="SVGID_61_">
							<use xlink:href="#SVGID_60_"  overflow="visible"/>
						</clipPath>
						<polygon clip-path="url(#SVGID_61_)" fill="#322C63" points="110.463,105.133 109.894,105.133 109.894,97.587 107.27,97.587 
							107.27,97.056 113.087,97.056 113.087,97.587 110.463,97.587 						"/>
					</g>
					<g>
						<defs>
							<rect id="SVGID_62_" x="64.893" y="-11.359" width="171.615" height="118.619"/>
						</defs>
						<clipPath id="SVGID_63_">
							<use xlink:href="#SVGID_62_"  overflow="visible"/>
						</clipPath>
						<path clip-path="url(#SVGID_63_)" fill="#322C63" d="M121.166,101.083c0,1.283-0.32,2.295-0.961,3.041
							s-1.525,1.119-2.652,1.119c-1.123,0-2.005-0.373-2.646-1.119c-0.641-0.746-0.961-1.764-0.961-3.053
							c0-1.283,0.323-2.297,0.969-3.035c0.647-0.738,1.53-1.107,2.649-1.107c1.128,0,2.009,0.371,2.647,1.113
							C120.847,98.784,121.166,99.798,121.166,101.083 M114.559,101.083c0,1.158,0.258,2.051,0.774,2.683
							c0.515,0.632,1.255,0.946,2.22,0.946c0.972,0,1.716-0.312,2.229-0.938c0.514-0.626,0.771-1.521,0.771-2.689
							c0-1.164-0.257-2.057-0.771-2.676c-0.513-0.621-1.253-0.932-2.218-0.932c-0.961,0-1.702,0.313-2.223,0.938
							C114.818,99.042,114.559,99.931,114.559,101.083"/>
					</g>
					<g>
						<defs>
							<rect id="SVGID_64_" x="64.893" y="-11.359" width="171.615" height="118.619"/>
						</defs>
						<clipPath id="SVGID_65_">
							<use xlink:href="#SVGID_64_"  overflow="visible"/>
						</clipPath>
						<path clip-path="url(#SVGID_65_)" fill="#322C63" d="M123.676,101.614v3.519h-0.563v-8.077h1.922
							c1.002,0,1.742,0.187,2.221,0.557c0.479,0.369,0.718,0.927,0.718,1.671c0,0.541-0.143,0.998-0.428,1.37
							c-0.286,0.371-0.719,0.64-1.301,0.802l2.193,3.679h-0.674l-2.083-3.519L123.676,101.614L123.676,101.614z M123.676,101.128
							h1.541c0.682,0,1.21-0.152,1.586-0.456c0.375-0.304,0.563-0.752,0.563-1.345c0-0.615-0.184-1.062-0.552-1.343
							c-0.369-0.28-0.969-0.42-1.801-0.42h-1.337V101.128z"/>
					</g>
					<g>
						<defs>
							<rect id="SVGID_66_" x="64.893" y="-11.359" width="171.615" height="118.619"/>
						</defs>
						<clipPath id="SVGID_67_">
							<use xlink:href="#SVGID_66_"  overflow="visible"/>
						</clipPath>
						<rect x="129.926" y="97.056" clip-path="url(#SVGID_67_)" fill="#322C63" width="0.563" height="8.077"/>
					</g>
					<g>
						<defs>
							<rect id="SVGID_68_" x="64.893" y="-11.359" width="171.615" height="118.619"/>
						</defs>
						<clipPath id="SVGID_69_">
							<use xlink:href="#SVGID_68_"  overflow="visible"/>
						</clipPath>
						<path clip-path="url(#SVGID_69_)" fill="#322C63" d="M136.756,102.282h-3.281l-1.127,2.851h-0.625l3.249-8.11h0.359
							l3.182,8.11h-0.635L136.756,102.282z M133.679,101.773h2.889l-1.099-2.912c-0.092-0.229-0.202-0.545-0.332-0.948
							c-0.099,0.354-0.208,0.674-0.325,0.961L133.679,101.773z"/>
					</g>
					<g>
						<defs>
							<rect id="SVGID_70_" x="64.893" y="-11.359" width="171.615" height="118.619"/>
						</defs>
						<clipPath id="SVGID_71_">
							<use xlink:href="#SVGID_70_"  overflow="visible"/>
						</clipPath>
						<path clip-path="url(#SVGID_71_)" fill="#322C63" d="M148.908,101.018c0,1.354-0.355,2.38-1.066,3.073
							c-0.711,0.695-1.755,1.043-3.132,1.043h-1.934v-8.078h2.182c1.289,0,2.27,0.338,2.942,1.012S148.908,99.725,148.908,101.018
							 M148.295,101.04c0-1.158-0.294-2.027-0.881-2.611c-0.588-0.584-1.45-0.875-2.588-0.875h-1.486v7.082h1.337
							C147.089,104.636,148.295,103.437,148.295,101.04"/>
					</g>
					<g>
						<defs>
							<rect id="SVGID_72_" x="64.893" y="-11.359" width="171.615" height="118.619"/>
						</defs>
						<clipPath id="SVGID_73_">
							<use xlink:href="#SVGID_72_"  overflow="visible"/>
						</clipPath>
						<polygon clip-path="url(#SVGID_73_)" fill="#322C63" points="155.27,105.133 150.854,105.133 150.854,97.056 155.27,97.056 
							155.27,97.575 151.419,97.575 151.419,100.631 155.055,100.631 155.055,101.148 151.419,101.148 151.419,104.614 
							155.27,104.614 						"/>
					</g>
					<g>
						<defs>
							<rect id="SVGID_74_" x="64.893" y="-11.359" width="171.615" height="118.619"/>
						</defs>
						<clipPath id="SVGID_75_">
							<use xlink:href="#SVGID_74_"  overflow="visible"/>
						</clipPath>
						<path clip-path="url(#SVGID_75_)" fill="#322C63" d="M163.736,100.9h2.746v3.929c-0.428,0.137-0.861,0.237-1.303,0.309
							c-0.443,0.07-0.955,0.105-1.537,0.105c-1.224,0-2.175-0.363-2.855-1.093c-0.682-0.727-1.021-1.744-1.021-3.057
							c0-0.84,0.168-1.576,0.506-2.207c0.336-0.631,0.821-1.115,1.455-1.447c0.633-0.334,1.375-0.5,2.227-0.5
							c0.861,0,1.665,0.158,2.408,0.476l-0.364,0.829c-0.729-0.311-1.431-0.465-2.104-0.465c-0.982,0-1.75,0.294-2.304,0.879
							c-0.553,0.586-0.828,1.396-0.828,2.437c0,1.09,0.267,1.918,0.8,2.48c0.53,0.562,1.312,0.845,2.344,0.845
							c0.56,0,1.106-0.063,1.641-0.192v-2.485h-1.807V100.9H163.736z"/>
					</g>
					<g>
						<defs>
							<rect id="SVGID_76_" x="64.893" y="-11.359" width="171.615" height="118.619"/>
						</defs>
						<clipPath id="SVGID_77_">
							<use xlink:href="#SVGID_76_"  overflow="visible"/>
						</clipPath>
						<path clip-path="url(#SVGID_77_)" fill="#322C63" d="M174.611,97.056v5.228c0,0.921-0.278,1.645-0.834,2.171
							c-0.557,0.525-1.321,0.79-2.293,0.79c-0.973,0-1.725-0.267-2.258-0.795c-0.531-0.531-0.797-1.261-0.797-2.188v-5.205h0.938
							v5.271c0,0.674,0.185,1.191,0.554,1.553c0.367,0.361,0.908,0.541,1.623,0.541c0.683,0,1.206-0.181,1.574-0.544
							s0.553-0.883,0.553-1.562v-5.26H174.611z"/>
					</g>
					<g>
						<defs>
							<rect id="SVGID_78_" x="64.893" y="-11.359" width="171.615" height="118.619"/>
						</defs>
						<clipPath id="SVGID_79_">
							<use xlink:href="#SVGID_78_"  overflow="visible"/>
						</clipPath>
						<path clip-path="url(#SVGID_79_)" fill="#322C63" d="M181.917,105.133l-1.006-2.569h-3.236l-0.995,2.569h-0.949l3.192-8.11
							h0.79l3.176,8.11H181.917z M180.618,101.719l-0.938-2.503c-0.121-0.316-0.246-0.705-0.375-1.165
							c-0.082,0.353-0.197,0.742-0.35,1.165l-0.949,2.503H180.618z"/>
					</g>
					<g>
						<defs>
							<rect id="SVGID_80_" x="64.893" y="-11.359" width="171.615" height="118.619"/>
						</defs>
						<clipPath id="SVGID_81_">
							<use xlink:href="#SVGID_80_"  overflow="visible"/>
						</clipPath>
						<path clip-path="url(#SVGID_81_)" fill="#322C63" d="M190.536,101.017c0,1.334-0.361,2.354-1.085,3.06
							c-0.725,0.705-1.766,1.059-3.124,1.059h-2.237v-8.078h2.475c1.256,0,2.232,0.35,2.929,1.045
							C190.189,98.796,190.536,99.769,190.536,101.017 M189.542,101.05c0-1.053-0.265-1.847-0.793-2.381
							c-0.528-0.533-1.312-0.801-2.354-0.801h-1.365v6.452h1.144c1.12,0,1.961-0.274,2.525-0.825
							C189.26,102.943,189.542,102.13,189.542,101.05"/>
					</g>
					<g>
						<defs>
							<rect id="SVGID_82_" x="64.893" y="-11.359" width="171.615" height="118.619"/>
						</defs>
						<clipPath id="SVGID_83_">
							<use xlink:href="#SVGID_82_"  overflow="visible"/>
						</clipPath>
						<path clip-path="url(#SVGID_83_)" fill="#322C63" d="M197.505,105.133l-1.005-2.569h-3.236l-0.996,2.569h-0.949l3.193-8.11
							h0.789l3.176,8.11H197.505z M196.207,101.719l-0.939-2.503c-0.121-0.316-0.246-0.705-0.375-1.165
							c-0.082,0.353-0.197,0.742-0.349,1.165l-0.95,2.503H196.207z"/>
					</g>
					<g>
						<defs>
							<rect id="SVGID_84_" x="64.893" y="-11.359" width="171.615" height="118.619"/>
						</defs>
						<clipPath id="SVGID_85_">
							<use xlink:href="#SVGID_84_"  overflow="visible"/>
						</clipPath>
						<polygon clip-path="url(#SVGID_85_)" fill="#322C63" points="199.678,105.133 199.678,97.056 200.617,97.056 200.617,104.282 
							204.18,104.282 204.18,105.133 						"/>
					</g>
					<g>
						<defs>
							<rect id="SVGID_86_" x="64.893" y="-11.359" width="171.615" height="118.619"/>
						</defs>
						<clipPath id="SVGID_87_">
							<use xlink:href="#SVGID_86_"  overflow="visible"/>
						</clipPath>
						<path clip-path="url(#SVGID_87_)" fill="#322C63" d="M210.718,105.133l-1.005-2.569h-3.236l-0.994,2.569h-0.95l3.192-8.11
							h0.789l3.178,8.11H210.718z M209.42,101.719l-0.938-2.503c-0.123-0.316-0.248-0.705-0.377-1.165
							c-0.08,0.353-0.196,0.742-0.349,1.165l-0.95,2.503H209.42z"/>
					</g>
					<g>
						<defs>
							<rect id="SVGID_88_" x="64.893" y="-11.359" width="171.615" height="118.619"/>
						</defs>
						<clipPath id="SVGID_89_">
							<use xlink:href="#SVGID_88_"  overflow="visible"/>
						</clipPath>
						<path clip-path="url(#SVGID_89_)" fill="#322C63" d="M211.714,107.26c-0.346,0-0.618-0.05-0.815-0.149v-0.801
							c0.261,0.073,0.533,0.11,0.815,0.11c0.365,0,0.644-0.11,0.832-0.331s0.284-0.54,0.284-0.956v-8.077h0.939v8
							c0,0.699-0.179,1.242-0.531,1.627C212.885,107.066,212.377,107.26,211.714,107.26"/>
					</g>
					<g>
						<defs>
							<rect id="SVGID_90_" x="64.893" y="-11.359" width="171.615" height="118.619"/>
						</defs>
						<clipPath id="SVGID_91_">
							<use xlink:href="#SVGID_90_"  overflow="visible"/>
						</clipPath>
						<path clip-path="url(#SVGID_91_)" fill="#322C63" d="M221.08,105.133l-1.005-2.569h-3.237l-0.995,2.569h-0.95l3.193-8.11h0.79
							l3.176,8.11H221.08z M219.782,101.719l-0.939-2.503c-0.122-0.316-0.247-0.705-0.376-1.165
							c-0.08,0.353-0.197,0.742-0.348,1.165l-0.95,2.503H219.782z"/>
					</g>
					<g>
						<defs>
							<rect id="SVGID_92_" x="64.893" y="-11.359" width="171.615" height="118.619"/>
						</defs>
						<clipPath id="SVGID_93_">
							<use xlink:href="#SVGID_92_"  overflow="visible"/>
						</clipPath>
						<path clip-path="url(#SVGID_93_)" fill="#322C63" d="M224.193,101.772v3.358h-0.939v-8.075h2.215
							c0.991,0,1.723,0.19,2.196,0.569s0.71,0.949,0.71,1.711c0,1.067-0.541,1.791-1.624,2.166l2.192,3.629h-1.109l-1.956-3.358
							H224.193z M224.193,100.968h1.285c0.664,0,1.149-0.133,1.459-0.395c0.311-0.265,0.465-0.658,0.465-1.187
							c0-0.534-0.157-0.92-0.473-1.155c-0.314-0.234-0.82-0.353-1.517-0.353h-1.222v3.089H224.193z"/>
					</g>
					<g>
						<defs>
							<rect id="SVGID_94_" x="64.893" y="-11.359" width="171.615" height="118.619"/>
						</defs>
						<clipPath id="SVGID_95_">
							<use xlink:href="#SVGID_94_"  overflow="visible"/>
						</clipPath>
						<path clip-path="url(#SVGID_95_)" fill="#322C63" d="M235.415,105.133l-1.007-2.569h-3.235l-0.995,2.569h-0.949l3.192-8.11
							h0.79l3.176,8.11H235.415z M234.116,101.719l-0.938-2.503c-0.121-0.316-0.246-0.705-0.376-1.165
							c-0.081,0.353-0.196,0.742-0.349,1.165l-0.949,2.503H234.116z"/>
					</g>
					<g>
						<defs>
							<rect id="SVGID_96_" x="64.893" y="-11.359" width="171.615" height="118.619"/>
						</defs>
						<clipPath id="SVGID_97_">
							<use xlink:href="#SVGID_96_"  overflow="visible"/>
						</clipPath>
						<path clip-path="url(#SVGID_97_)" fill="#CE9516" d="M180.822,72.542l-0.652-1.771c1.443-0.42,2.811-1.062,4.1-1.934
							c1.289-0.869,2.301-1.832,3.039-2.888c0.735-1.057,1.104-2.096,1.104-3.12c0-0.761-0.244-1.357-0.731-1.793
							c-0.49-0.435-1.146-0.652-1.97-0.652c-0.978,0-2.049,0.256-3.213,0.77c-1.165,0.513-2.315,1.228-3.459,2.143
							c-1.14,0.916-2.229,2.019-3.271,3.308c-1.136,1.412-2.082,2.888-2.843,4.424c-0.761,1.537-1.336,3.102-1.724,4.693
							c-0.389,1.59-0.582,3.239-0.582,4.947c0,2.902,0.667,5.205,2.003,6.904c1.335,1.7,3.159,2.551,5.474,2.551
							c1.489,0,2.938-0.334,4.342-1.002c1.406-0.667,3.017-1.785,4.834-3.354l0.371-0.303l0.279,0.512
							c-1.848,1.832-3.701,3.207-5.564,4.123s-3.742,1.373-5.637,1.373c-1.707,0-3.226-0.406-4.553-1.222
							c-1.327-0.816-2.352-1.957-3.072-3.424c-0.724-1.469-1.084-3.188-1.084-5.158c0-1.428,0.211-2.918,0.629-4.471
							c0.42-1.553,1.045-3.124,1.875-4.717c0.83-1.59,1.812-3.131,2.944-4.623c1.195-1.582,2.522-3,3.981-4.25
							c1.459-1.248,2.924-2.215,4.391-2.897c1.468-0.684,2.783-1.023,3.947-1.023c1.102,0,1.982,0.313,2.643,0.943
							c0.66,0.627,0.99,1.477,0.99,2.549c0,1.195-0.396,2.441-1.188,3.737c-0.793,1.296-1.85,2.453-3.168,3.47
							C183.74,71.404,182.327,72.123,180.822,72.542"/>
					</g>
				</g>
			</g>
		</g>
	</g>
</g>
</svg>
